<svg xmlns="http://www.w3.org/2000/svg" aria-hidden="true" width="18" height="18" viewBox="0 0 24 24"
     class="option-icon">
    <path d="M0 0h24v24H0z" fill="none"/>
    <path d="m12.87 15.07-2.54-2.51.03-.03A17.52 17.52 0 0 0 14.07 6H17V4h-7V2H8v2H1v1.99h11.17A15.71 15.71 0 0 1 9 11.35 15.65 15.65 0 0 1 6.69 8h-2a17.56 17.56 0 0 0 2.98 4.56l-5.09 5.02L4 19l5-5 3.11 3.11.76-2.04zM18.5 10h-2L12 22h2l1.12-3h4.75L21 22h2l-4.5-12zm-2.62 7 1.62-4.33L19.12 17h-3.24z"
          class="css-c4d79v"/>
</svg>