<svg xmlns="http://www.w3.org/2000/svg" width="20" height="20">
    <g fill-rule="evenodd" fill="none">
        <path d="M0 0h20v20H0z"/>
        <g transform="translate(1.5 1.2)" stroke-width="1.1" stroke="#7AFBE6">
            <path stroke-linecap="round"
                  d="M3.72 10C1.66 10 0 8.5 0 6.63c0-1.85 1.67-3.36 3.72-3.36h.14A4.72 4.72 0 0 1 8.5 0c2.24 0 4.12 1.4 4.64 3.27h.14c2.06 0 3.72 1.5 3.72 3.36C17 8.5 15.34 10 13.28 10"/>
            <ellipse ry="1.83" rx="1.79" cy="15.95" cx="8.51"/>
            <ellipse ry="1.83" rx="1.79" cy="13.47" cx="14.25"/>
            <ellipse ry="1.83" rx="1.79" cy="13.47" cx="2.77"/>
            <path stroke-linecap="round"
                  d="M8.5 14.03v-8.1m2.13 1.49v4.29c0 1 .82 1.82 1.83 1.82h0M6.4 7.42v4.29a1.83 1.83 0 0 1-1.82 1.82h0"/>
        </g>
    </g>
</svg>