<svg
        preserveAspectRatio="xMidYMid meet"
        xmlns="http://www.w3.org/2000/svg"
        width="20"
        height="20"
        fill=""
        viewBox="0 0 18 18"
>
    <!--?lit$216963443$-->
    <g>
        <g fill-rule="evenodd" fill="none">
            <path d="M-1-1h20v20H-1z"/>
            <g stroke="#7AFBE6">
                <g stroke-linecap="round">
                    <path
                            d="M16.99 12.986a3.001 3.001 0 0 0-5.684-.096c-.069.064.445.08 1.543.051M11.3 14.65a3.001 3.001 0 0 0 5.684.095c.07-.063-.445-.08-1.543-.05"
                    />
                </g>
                <path
                        d="M9.777 16.937c-.082.007-.307-.006-.39 0l-.509.03c-.086.005-.172.009-.26.012l-.528.016a27.353 27.353 0 0 1-1.08 0l-.529-.016a25.773 25.773 0 0 1-.26-.012l-.507-.03-.492-.04-.24-.023-.466-.053-.446-.062c-.072-.01-.144-.022-.215-.033l-.413-.074C1.902 16.357.887 15.9.805 15.384L.8 15.316V2.684l.005-.068c.077-.483.972-.915 2.35-1.21l.406-.08.213-.038.443-.069.23-.03.474-.056.245-.025.503-.042.52-.032.535-.022c.18-.005.363-.009.548-.01L7.55 1c.182 0 .362.002.54.005l.529.016c.087.003.173.007.26.012l.507.03.492.04.24.023.466.053.446.062c.072.01.144.022.215.033l.413.074c1.54.295 2.555.752 2.637 1.268l.005.068v6.167"
                />
                <path
                        d="M.92 4.43c1.128.708 3.714 1.203 6.724 1.203 3.056 0 5.675-.51 6.775-1.235M.92 8.43c1.112.708 3.485 1.203 6.631 1.203 3.147 0 5.883-.477 6.968-1.203M.92 12.43c1.154.708 3.616 1.203 6.88 1.203.802 0 1.21-.028 1.942-.083"
                />
            </g>
        </g>
    </g>
</svg>
