<svg
        preserveAspectRatio="xMidYMid meet"
        xmlns="http://www.w3.org/2000/svg"
        width="20"
        height="20"
        fill=""
        viewBox="0 0 19 18"
>
    <!--?lit$216963443$-->
    <g>
        <g fill-rule="evenodd" fill="none">
            <path d="M0-2h20v20H0z"/>
            <g transform="translate(1.5 .8)">
                <path
                        stroke-linecap="round"
                        stroke-width="1.1"
                        stroke="#7AFBE6"
                        d="M5.018 15.05H1a1 1 0 0 1-1-1V1a1 1 0 0 1 1-1h2.902a1 1 0 0 1 .97.756l.617 2.45a1 1 0 0 0 .97.755h8.479a1 1 0 0 1 1 1v2.692h0"
                />
                <rect
                        rx=".55"
                        height="1.182"
                        width="6.375"
                        y="1.075"
                        x="8.5"
                        fill="#7AFBE6"
                />
                <path
                        stroke="#7AFBE6"
                        d="m12.98 8.562.753 1.14 2.23.395.537 5.465-9.125.5-.5-5.466 2.12-.5.875-1.145 3.11-.389Z"
                />
                <ellipse
                        ry="1.65"
                        rx="1.625"
                        cy="12.65"
                        cx="11.688"
                        stroke="#7AFBE6"
                        data-follow-stroke="#7AFBE6"
                />
            </g>
        </g>
    </g>
</svg>
