<svg xmlns="http://www.w3.org/2000/svg" width="20" height="20" viewBox="0 0 19 18">
    <g fill-rule="evenodd" fill="none">
        <path d="M0-2h20v20H0z"/>
        <g transform="translate(1.5 .8)">
            <path stroke-linecap="round" stroke-width="1.1" stroke="#7AFBE6"
                  d="M5.02 15.05H1a1 1 0 0 1-1-1V1a1 1 0 0 1 1-1h2.9a1 1 0 0 1 .97.76L5.5 3.2a1 1 0 0 0 .97.75h8.48a1 1 0 0 1 1 1v2.7h0"/>
            <rect rx=".55" height="1.18" width="6.38" y="1.07" x="8.5" fill="#7AFBE6"/>
            <path stroke="#7AFBE6" d="m12.98 8.56.75 1.14 2.23.4.54 5.46-9.13.5-.5-5.46L9 10.1l.87-1.15 3.11-.39Z"/>
            <ellipse ry="1.65" rx="1.63" cy="12.65" cx="11.69" stroke="#7AFBE6" data-follow-stroke="#7AFBE6"/>
        </g>
    </g>
</svg>