<svg class="tw-mx-auto" xmlns="http://www.w3.org/2000/svg" width="1em" height="1em" fill="currentColor"
     viewBox="0 0 22 22">
    <g fill="none" fill-rule="evenodd">
        <path d="M-1-1h24v24H-1z"/>
        <g color="#fff" transform="translate(.5 .5)" stroke="currentColor">
            <circle stroke-width="1.8" cx="9.84" cy="9.84" r="8.94"/>
            <path d="M16.41 16.17a.29.29 0 0 1 .4 0l3.26 3.15a.29.29 0 0 1 0 .41v.01l-.3.28a.29.29 0 0 1-.4 0l-3.25-3.15a.29.29 0 0 1-.08-.2Z"/>
            <path d="m4.84 12.32 2.5-3.42a.5.5 0 0 1 .64-.14l4.04 2.18a.5.5 0 0 0 .66-.17l2.16-3.44h0"
                  stroke-width="1.8" stroke-linecap="round"/>
        </g>
    </g>
</svg>