<svg class="tw-mx-auto" xmlns="http://www.w3.org/2000/svg" width="1em" height="1em" fill="currentColor"
     viewBox="0 0 18 22">
    <g fill="none" fill-rule="evenodd">
        <path d="M-3-1h24v24H-3z"/>
        <g color="#fff" stroke="currentColor" stroke-linecap="round">
            <path d="M1.5 1.02h10.04a.5.5 0 0 1 .37.16l5.19 5.8a.5.5 0 0 1 .12.34V20.5a.5.5 0 0 1-.5.5H1.5a.5.5 0 0 1-.5-.5V1.52a.5.5 0 0 1 .5-.5Z"
                  stroke-width="1.5"/>
            <path d="m11.96 1.25 5.09 5.7a.5.5 0 0 1-.38.82h-5.09a.5.5 0 0 1-.5-.5V1.58a.5.5 0 0 1 .88-.33Z"
                  stroke-width="1.5"/>
            <path d="M3.88 11.41h8.27M3.88 14.9H8" stroke-width="1.6"/>
        </g>
    </g>
</svg>