<svg
        preserveAspectRatio="xMidYMid meet"
        xmlns="http://www.w3.org/2000/svg"
        width="24"
        height="24"
        fill="currentColor"
        viewBox="0 0 20 21"
>
    <!--?lit$8907382862$-->
    <g>
        <g fill="none" fill-rule="evenodd" color="white">
            <path d="M-2-2h24v24H-2z"/>
            <g
                    fill-rule="nonzero"
                    stroke="currentColor"
            >
                <path
                        d="M1.893 1.5c-.236 0-.546.034-.705.19-.258.26-.432 1.382.762 3.774 1.158 2.315 3.163 4.956 5.646 7.438 4.33 4.33 8.565 6.596 10.511 6.596.234 0 .547-.034.705-.19.258-.259.433-1.38-.761-3.772-1.158-2.312-3.163-4.956-5.647-7.438C8.07 3.768 3.837 1.5 1.893 1.5Z"
                        stroke-width="1.6"
                />
                <path
                        d="M18.108 1.5c-1.942 0-6.18 2.267-10.511 6.598-2.483 2.485-4.489 5.126-5.646 7.44-1.197 2.39-1.022 3.511-.762 3.772.159.156.472.19.707.19 1.944 0 6.179-2.265 10.509-6.596 2.485-2.482 4.488-5.123 5.646-7.438 1.194-2.39 1.02-3.513.761-3.773-.158-.159-.469-.193-.704-.193Z"
                        stroke-width="1.6"
                />
                <path
                        d="M10.054 9.846a.654.654 0 1 1 0 1.308.654.654 0 0 1 0-1.308Z"
                        stroke-width="1.3"
                />
            </g>
        </g>
    </g>
</svg>
