<svg xmlns="http://www.w3.org/2000/svg" width="24" height="24" fill="currentColor" viewBox="0 0 20 21">
    <g fill="none" fill-rule="evenodd" color="#fff">
        <path d="M-2-2h24v24H-2z"/>
        <g fill-rule="nonzero" stroke="currentColor">
            <path d="M1.9 1.5c-.24 0-.55.03-.71.19-.26.26-.43 1.38.76 3.77A30.46 30.46 0 0 0 7.6 12.9c4.33 4.33 8.56 6.6 10.5 6.6.24 0 .55-.04.71-.2.26-.25.43-1.37-.76-3.76A30.5 30.5 0 0 0 12.4 8.1C8.07 3.77 3.84 1.5 1.9 1.5Z"
                  stroke-width="1.6"/>
            <path d="M18.1 1.5c-1.93 0-6.17 2.27-10.5 6.6a30.52 30.52 0 0 0-5.65 7.44c-1.2 2.39-1.02 3.5-.76 3.77.16.16.47.19.7.19 1.95 0 6.19-2.27 10.52-6.6a30.41 30.41 0 0 0 5.64-7.43c1.2-2.4 1.02-3.52.76-3.78-.16-.16-.47-.19-.7-.19Z"
                  stroke-width="1.6"/>
            <path d="M10.05 9.85a.65.65 0 1 1 0 1.3.65.65 0 0 1 0-1.3Z" stroke-width="1.3"/>
        </g>
    </g>
</svg>