<svg class="tw-mx-auto" xmlns="http://www.w3.org/2000/svg" width="1em" height="1em" fill="currentColor"
     viewBox="0 0 20 21">
    <g fill="none" fill-rule="evenodd">
        <path d="M-2-2h24v24H-2z"/>
        <g color="#fff" transform="translate(1)" stroke="currentColor">
            <path d="M0 9.86h3.35a3.5 3.5 0 0 0 3.5-3.5v-.22a3.5 3.5 0 0 1 3.5-3.5h4.13M0 6.38h10.36" stroke-width="1.5"
                  stroke-linecap="round"/>
            <ellipse stroke-width="1.6" cx="16.4" cy="18.36" rx="1.8" ry="1.84"/>
            <ellipse stroke-width="1.6" cx="16.24" cy="2.64" rx="1.8" ry="1.84"/>
            <circle r="1" stroke-width="2" cx="10.79" cy="6.33"/>
            <circle r="1" stroke-width="2" cx="10.79" cy="13.09"/>
            <path d="M0 13.09h10.36M0 16.12h3.9a5 5 0 0 1 3.12 1.1l.06.04a5 5 0 0 0 3.13 1.1h4.27" stroke-width="1.5"
                  stroke-linecap="round"/>
        </g>
    </g>
</svg>