<svg xmlns="http://www.w3.org/2000/svg" width="24" height="24" fill="currentColor" viewBox="0 0 21 21">
    <g fill="none" fill-rule="evenodd">
        <path d="M-2-2h24v24H-2z"/>
        <g color="#fff" stroke="currentColor">
            <path d="m10.45 6.68 3.62 2.07.2 4.38-3.78 2.49-3.56-2.1-.2-4.4 3.72-2.44Zm.05.42V3.16m3.6 9.89 3.46 1.97"
                  stroke-width="1.5"/>
            <ellipse stroke-width="2" cx="19.03" cy="15.42" rx="1" ry="1.01"/>
            <ellipse stroke-width="2" cx="1.97" cy="15.42" rx="1" ry="1.01"/>
            <ellipse stroke-width="2" cx="10.5" cy="2.01" rx="1" ry="1.01"/>
            <path d="m6.9 13.05-3.47 1.97" stroke-width="1.5"/>
            <path d="M6.41 3.22a8.86 8.86 0 0 0-4.9 8.41m3.54 6.56A9.04 9.04 0 0 0 10.5 20c2.02 0 3.88-.66 5.38-1.76m3.6-6.6.02-.51a8.87 8.87 0 0 0-5.2-8.05"
                  stroke-width="1.4" stroke-linecap="round"/>
        </g>
    </g>
</svg>