<svg xmlns="http://www.w3.org/2000/svg" width="24" height="24" fill="currentColor" viewBox="0 0 21 23">
    <g fill="none" fill-rule="evenodd" color="#fff">
        <path d="M-2-1h24v24H-2z"/>
        <path fill="currentColor" fill-rule="nonzero"
              d="M8.92 0c.35 0 .71 0 1.06.03l.23.01.15.01c.3.02.61.05.91.09l.16.01.64.1.13.02.84.16.08.02.1.03.1.02.43.11.15.05a11.27 11.27 0 0 1 1.82.7 7.35 7.35 0 0 1 1.18.76 4 4 0 0 1 .43.44l.04.05c.1.12.18.25.25.38l.04.08a1.72 1.72 0 0 1 .17.61v6.41l-.1-.07A7.04 7.04 0 0 1 21 16.37a7.03 7.03 0 0 1-3.95 5.93 6.99 6.99 0 0 1-7.08-.58l-.01-.01a19.33 19.33 0 0 1-1.03.03C4.12 21.74.2 20.1 0 18.05V3.68l.01-.03c.02-.18.07-.35.14-.51l.03-.07.04-.08c.07-.13.15-.26.25-.38l.03-.05a3.86 3.86 0 0 1 .73-.67l.14-.1.05-.03a6.26 6.26 0 0 1 .7-.4 10.02 10.02 0 0 1 1.81-.7L4.08.6l.1-.03.33-.08.1-.02.11-.03.08-.02.83-.16.14-.02a18.02 18.02 0 0 1 1.7-.2l.16-.01.22-.01C8.21 0 8.56 0 8.92 0Zm5.1 10.48a5.47 5.47 0 0 0-4.75 2.75 5.51 5.51 0 0 0 0 5.5 5.47 5.47 0 0 0 4.74 2.75 5.49 5.49 0 0 0 0-11Zm-12.6 7.35v.08c.09.92 3.15 2.18 6.98 2.28l.02.02A7.02 7.02 0 0 1 7 15.98a7.07 7.07 0 0 1 .3-2.04l-.02.06c-2.4-.19-4.56-.79-5.87-1.63v5.46Zm12.6-5.17c.37 0 .69.27.75.64v3.27l.5-.5a.76.76 0 0 1 1-.07l.08.08a.77.77 0 0 1 .09.99l-.09.1-1.8 1.8a.76.76 0 0 1-.98.08l-.1-.08-1.8-1.8a.77.77 0 0 1-.04-1.05.76.76 0 0 1 1.03-.12l.1.08.49.5v-3.15a.77.77 0 0 1 .76-.77Zm-5.1-4.99c-3.08 0-5.89-.67-7.5-1.69v4.36l.17.19c.8.98 3.37 1.82 6.33 1.97v.02a7 7 0 0 1 8.42-3.17l-.03-.01V5.98c-1.6 1.02-4.32 1.7-7.4 1.7Zm0-6.14c-.71 0-1.42.04-2.12.12-3.1.36-5.27 1.43-5.27 2.19 0 .91 3.22 2.3 7.39 2.3 4.15 0 7.37-1.38 7.39-2.3v-.02c-.07-.71-1.88-1.63-4.49-2.06a18.14 18.14 0 0 0-2.54-.22h-.36Z"/>
    </g>
</svg>