<svg
        preserveAspectRatio="xMidYMid meet"
        xmlns="http://www.w3.org/2000/svg"
        width="44"
        height="44"
        fill=""
        viewBox="0 0 42 48"
>
    <!--?lit$0399570365$-->
    <g>
        <g fill-rule="evenodd" fill="none">
            <path d="M-4-1h50v50H-4z"/>
            <g transform="translate(-3)">
                <path
                        fill="#8322FF"
                        d="m25 .577 18.785 10.846a2 2 0 0 1 1 1.732v21.69a2 2 0 0 1-1 1.732L25 47.423a2 2 0 0 1-2 0L4.215 36.577a2 2 0 0 1-1-1.732v-21.69a2 2 0 0 1 1-1.732L23 .577a2 2 0 0 1 2 0Z"
                />
                <rect
                        rx="1.25"
                        height="17.739"
                        width="2.609"
                        y="24"
                        x="22.957"
                        fill="#FFF"
                />
                <path
                        fill="#FFF"
                        d="m9.248 15.96.054-.094a1.25 1.25 0 0 1 1.708-.458l13.197 7.62a1.25 1.25 0 0 1 .458 1.708l-.054.094a1.25 1.25 0 0 1-1.708.457l-13.197-7.62a1.25 1.25 0 0 1-.458-1.707Z"
                />
                <path
                        fill="#FFF"
                        d="m23.857 24.736.054.094a1.25 1.25 0 0 0 1.708.457l13.197-7.62a1.25 1.25 0 0 0 .458-1.707l-.055-.094a1.25 1.25 0 0 0-1.707-.458l-13.198 7.62a1.25 1.25 0 0 0-.457 1.708Z"
                />
            </g>
        </g>
    </g>
</svg>
