<svg xmlns="http://www.w3.org/2000/svg" width="44" height="44" viewBox="0 0 40 37">
    <g fill-rule="evenodd" fill="none">
        <path d="M-5-7h50v50H-5z"/>
        <path fill-rule="nonzero" fill="#8322FF"
              d="M38 0c1.1 0 2 .76 2 1.7v7.6c0 .94-.9 1.7-2 1.7H2c-1.1 0-2-.76-2-1.7V1.7C0 .75.9 0 2 0h36Z"/>
        <circle r="2" cy="5.5" cx="7" fill="#FFF"/>
        <circle r="2" cy="5.5" cx="13" fill="#FFF"/>
        <g transform="translate(0 26)">
            <path fill-rule="nonzero" fill="#8322FF"
                  d="M38 0c1.1 0 2 .76 2 1.7v7.6c0 .94-.9 1.7-2 1.7H2c-1.1 0-2-.76-2-1.7V1.7C0 .75.9 0 2 0h36Z"/>
            <circle r="2" cy="6.5" cx="7" fill="#FFF"/>
        </g>
        <g transform="translate(0 13)">
            <path fill-rule="nonzero" fill="#8322FF"
                  d="M38 0c1.1 0 2 .76 2 1.7v7.6c0 .94-.9 1.7-2 1.7H2c-1.1 0-2-.76-2-1.7V1.7C0 .75.9 0 2 0h36Z"/>
            <circle r="2" cy="5.5" cx="34" fill="#FFF"/>
            <circle r="2" cy="5.5" cx="28" fill="#FFF"/>
        </g>
    </g>
</svg>