<svg xmlns="http://www.w3.org/2000/svg" width="44" height="44">
    <g fill-rule="evenodd" fill="none">
        <path d="M-3-3h50v50H-3z"/>
        <path fill-rule="nonzero" fill="#8322FF"
              d="M42.36 40.98h-2.34v-15.1a1.65 1.65 0 0 0-.7-1.4l-11.23-7.2V1.7a2 2 0 0 0-.7-1.4 1.56 1.56 0 0 0-1.41-.23L5.15 6.35a1.75 1.75 0 0 0-1.17 1.63v32.77H1.64c-.9 0-1.64.72-1.64 1.62C0 43.27.73 44 1.64 44h40.72A1.6 1.6 0 0 0 44 42.37a1.54 1.54 0 0 0-1.64-1.4Z"/>
        <rect rx="1.25" height="3" width="12" y="14" x="10" fill="#FFF"/>
        <rect rx="1.25" height="3" width="12" y="22" x="10" fill="#FFF"/>
        <rect rx="1.25" height="3" width="12" y="30" x="10" fill="#FFF"/>
        <rect rx="1.25" height="3" width="6" y="30" x="30" fill="#FFF"/>
    </g>
</svg>