<svg xmlns="http://www.w3.org/2000/svg" width="44" height="44" viewBox="0 0 42 48">
    <g fill-rule="evenodd" fill="none">
        <path d="M-4-1h50v50H-4z"/>
        <g transform="translate(-3)">
            <path fill="#8322FF"
                  d="m25 .58 18.79 10.84a2 2 0 0 1 1 1.74v21.69a2 2 0 0 1-1 1.73L25 47.42a2 2 0 0 1-2 0L4.21 36.58a2 2 0 0 1-1-1.74V13.15a2 2 0 0 1 1-1.73L23 .58a2 2 0 0 1 2 0Z"/>
            <rect rx="1.25" height="17.74" width="2.61" y="24" x="22.96" fill="#FFF"/>
            <path fill="#FFF"
                  d="m9.25 15.96.05-.1a1.25 1.25 0 0 1 1.71-.45l13.2 7.62a1.25 1.25 0 0 1 .45 1.7l-.05.1a1.25 1.25 0 0 1-1.7.46L9.7 17.67a1.25 1.25 0 0 1-.46-1.71Z"/>
            <path fill="#FFF"
                  d="m23.86 24.74.05.09a1.25 1.25 0 0 0 1.7.46l13.2-7.62a1.25 1.25 0 0 0 .46-1.71l-.05-.1a1.25 1.25 0 0 0-1.7-.45l-13.2 7.62a1.25 1.25 0 0 0-.46 1.7Z"/>
        </g>
    </g>
</svg>