<svg xmlns="http://www.w3.org/2000/svg" class="tw-bg-violet-700 dark:tw-bg-opacity-0" width="44" height="44"
     viewBox="0 0 40 43">
    <g fill-rule="evenodd" fill="none">
        <path d="M-5-4h50v50H-5z"/>
        <path stroke-linecap="round" stroke-width="2.5" stroke="#A376FF"
              d="M36.95 19.91v19.36c0 .96-.71 1.73-1.59 1.73H3.54c-.88 0-1.59-.77-1.59-1.73V4.73c0-.96.71-1.73 1.6-1.73H27.2"/>
        <path fill-rule="nonzero" fill="#A376FF" stroke-width=".4" stroke="#A376FF"
              d="M34.94 14.44c1.03-.04 1.74-.43 2.13-1.14.2-.37.3-.8.3-1.28 0-.77-.27-1.35-.82-1.75a5.25 5.25 0 0 0-1.61-.66v4.83Zm-3.06-8.87c0 .61.2 1.09.59 1.43.4.34.92.58 1.6.72V3.4c-.8.03-1.36.27-1.7.73-.32.46-.5.94-.5 1.45Zm-1.63.11a3.67 3.67 0 0 1 3.83-3.65v-.28h.86V2c1.2.08 2.12.44 2.76 1.08.64.63.97 1.47 1 2.51h-1.58a2.77 2.77 0 0 0-.37-1.2c-.38-.62-.98-.94-1.81-.98V7.9c1.4.4 2.34.77 2.84 1.12A2.93 2.93 0 0 1 39 11.57c0 1.63-.52 2.78-1.56 3.47-.58.38-1.41.63-2.5.75v.85h-.86v-.85c-1.75-.11-2.94-.74-3.56-1.89a5.19 5.19 0 0 1-.52-2.5h1.6c.05.83.18 1.44.39 1.83.37.7 1.06 1.08 2.07 1.17V9.39a5.7 5.7 0 0 1-2.88-1.26 3.2 3.2 0 0 1-.93-2.44ZM33.77 1h1.48v16h-1.48V1Z"
              color="#A376FF"/>
        <path stroke-linecap="round" stroke-width="2.5" stroke="#A376FF"
              d="m9.41 31 5.53-5.74a1 1 0 0 1 1.4-.05l4.3 3.88a1 1 0 0 0 1.38-.04l7-7.27h0"/>
        <path stroke-linecap="round" stroke-width="2.5" stroke="#A376FF" d="M23.74 21h5.16a1 1 0 0 1 1 1v5.16h0"/>
    </g>
</svg>