<svg xmlns="http://www.w3.org/2000/svg" class="tw-bg-violet-700 dark:tw-bg-opacity-0" width="44" height="44"
     viewBox="0 0 38 35">
    <g fill-rule="evenodd" fill="none">
        <path d="M-6-7h50v50H-6z"/>
        <g fill-rule="nonzero" fill="#A376FF">
            <path d="M20 1.9v7.25h-2.08V1.9z"/>
            <path d="M1.86 24.42c-1.73-1.14-2.08-3.68-.43-4.97 1.1-.86 1.99-1.45 2.66-1.76a15 15 0 0 1 1.74 1.2c.24.32-2.52 2-2.57 2.05-.68.55-.79 1.3-.32 1.65l.1.07 14.81 9.88c.66.43 1.66.38 2.34 0l.12-.08L35.2 22.6a1.25 1.25 0 0 0 .35-.35c.36-.55.36-1.6-.45-2.17L35 20l-14.5-9.66c-.65-.43-1.85-.8-2.53-.42l-.12.07-6.91 4.63c-.58.38-1.17.53-1.57-.04-.4-.57-.23-1.14.3-1.57l.1-.07 6.68-4.4a4.58 4.58 0 0 1 4.88-.1l.16.1 14.6 9.62a3.75 3.75 0 0 1 .17 6.14l-.18.12-14.59 9.62a4.58 4.58 0 0 1-4.88.1l-.16-.1-14.6-9.62Z"/>
            <path d="M20 26.07v7.25h-2.08v-7.25z"/>
            <path d="M36.12 10.7c1.73 1.15 2.33 3.3 1 5.14-.3.4-.6.8-1 1.13-.4.33-1.15.3-1.59-.15-.43-.46-.15-1.28.3-1.84.24-.33.4-.54.45-.63.36-.54.22-1.46-.24-1.81l-.1-.07-14.81-9.88a2.4 2.4 0 0 0-2.34 0l-.13.08-14.88 9.87a1.25 1.25 0 0 0-.36.35c-.36.55-.36 1.6.45 2.17l.1.07 14.5 9.66c.66.43 1.85.8 2.53.42l.13-.08 6.9-4.62c.58-.38 1.18-.53 1.58.04.4.57.23 1.14-.3 1.57l-.1.07-6.68 4.4a4.58 4.58 0 0 1-4.88.1l-.17-.1L1.9 16.97a3.75 3.75 0 0 1-.18-6.14l.18-.12 14.6-9.63a4.58 4.58 0 0 1 4.87-.1l.17.1 14.59 9.63Z"/>
        </g>
    </g>
</svg>