<svg xmlns="http://www.w3.org/2000/svg" class="tw-bg-violet-700 dark:tw-bg-opacity-0" width="44" height="44"
     viewBox="0 0 41 38">
    <g fill="none" fill-rule="evenodd">
        <path d="M-4-6h50v50H-4z"/>
        <g transform="translate(2 2)" stroke-linecap="round" stroke-width="2.5" stroke="#A376FF">
            <path d="M21.3 26.13H2a2 2 0 0 1-2-2V2a2 2 0 0 1 2-2h32.55a2 2 0 0 1 2 2v17.55h0M1.78 34.56h33"/>
            <path d="m34 28.63 3 3.3M4.97 15.64l7.81-6.83a1 1 0 0 1 1.32 0l4.42 3.88a1 1 0 0 0 1.3.01l9.37-7.9h0"/>
            <ellipse cx="28.98" cy="22.31" rx="8.02" ry="7.88"/>
        </g>
    </g>
</svg>