<svg xmlns="http://www.w3.org/2000/svg" width="44" height="44" viewBox="0 0 47 32">
    <g fill-rule="evenodd" fill="none">
        <path d="M-1-11h50v50H-1z"/>
        <path stroke-width="2.4" stroke="#4729FC"
              d="M23.59 4.44a8.21 8.21 0 0 1 5.93-2.6c4.41 0 8.06 3.67 8.66 8.45 0 .03.05.06.06.05a4.88 4.88 0 0 1 1.84-.36c3 0 5.43 2.74 5.43 6.1 0 2.14-.97 4.01-2.44 5.1m-33.1-10.8c2.5-.12 4.77.7 6.8 2.44"/>
        <path stroke-width="2.4" stroke="#170C2C"
              d="M21.52 4.38c5.98 0 10.93 4.6 11.73 10.59 0 .02.04.05.06.05a7.09 7.09 0 0 1 2.5-.46c4.06 0 7.36 3.42 7.36 7.64s-3.3 7.63-7.36 7.63h-24.5.33-.75c-5.18 0-9.39-4.37-9.39-9.75 0-5.4 4.2-9.76 9.4-9.76l.47.01a11.76 11.76 0 0 1 10.15-5.95Z"/>
    </g>
</svg>