<svg
        preserveAspectRatio="xMidYMid meet"
        xmlns="http://www.w3.org/2000/svg"
        width="44"
        height="44"
        fill=""
        viewBox="0 0 50 50"
>
    <!--?lit$6914032837$-->
    <g>
        <g fill-rule="nonzero" fill="none">
            <path
                    fill="#4729FC"
                    d="M26.2 22.808c.624 0 1.136.555 1.195 1.265l.005.135v21.808c0 .773-.537 1.4-1.2 1.4-.624 0-1.136-.555-1.195-1.265L25 46.016V24.208c0-.773.537-1.4 1.2-1.4ZM11.638 21.582c.258-.554.973-.774 1.64-.526l.125.052 6.17 2.878c.7.326 1.047 1.068.772 1.656-.258.554-.973.774-1.64.526l-.125-.053-6.17-2.877c-.701-.327-1.047-1.068-.772-1.656Z"
            />
            <path
                    fill="#170C2C"
                    d="M45.916 14.434a1 1 0 0 1-.423.423l-18.35 9.6a2 2 0 0 1-1.854 0l-18.35-9.6a1 1 0 0 1 0-1.773l18.35-9.599a2 2 0 0 1 1.855 0l18.35 9.6a1 1 0 0 1 .422 1.35Zm-3.005-.464L26.217 5.252 9.622 13.97l16.595 8.39 16.694-8.39Z"
            />
            <path
                    fill="#170C2C"
                    d="M45.91 19.547c.828-.007 1.192.614 1.2 1.442l.062 9.47.004 1.792-.001 1.917-.01 1.304-.017.95-.023.777a1 1 0 0 1-.491.832l-.195.115-18.235 9.67a3.487 3.487 0 0 1-3.013.114l-18.37-8.66-.01-.004a1 1 0 0 1-.573-.904v-.992l-.02-.897-.014-1.838.003-2.854.123-17.29c.006-.83.302-1.532 1.13-1.526.83.007 1.2.72 1.194 1.549L8.573 27.48l-.01 3.437.003 2.98.02 2.695.01.885a.2.2 0 0 0 .116.18l17.623 8.069c.116.06.25.073.37.038l.086-.034 17.94-9.334a.2.2 0 0 0 .108-.175l.006-.547.01-1.635-.014-5.903-.052-7.121c-.007-.829.292-1.46 1.12-1.468Z"
            />
        </g>
    </g>
</svg>
