<svg
        preserveAspectRatio="xMidYMid meet"
        xmlns="http://www.w3.org/2000/svg"
        width="44"
        height="44"
        fill=""
        viewBox="0 0 44 41"
>
    <!--?lit$6914032837$-->
    <g>
        <g fill-rule="evenodd" fill="none">
            <path d="M-4-5h50v50H-4z"/>
            <g transform="translate(1.5 1.207)">
                <path
                        stroke-linecap="round"
                        stroke-width="2.4"
                        stroke="#170C2C"
                        d="M38 20.889v5.989a3.707 3.707 0 0 1-3.707 3.707H3.707A3.707 3.707 0 0 1 0 26.878V3.708A3.707 3.707 0 0 1 3.707 0h30.586A3.707 3.707 0 0 1 38 3.707"
                />
                <circle
                        r="5.3"
                        cy="12.793"
                        cx="34.5"
                        stroke-width="1.4"
                        stroke="#4729FC"
                />
                <circle
                        r="1.3"
                        cy="12.793"
                        cx="34.5"
                        stroke-width="1.4"
                        stroke="#4729FC"
                />
                <path
                        stroke-linecap="round"
                        fill="#D8D8D8"
                        stroke-width="2.4"
                        stroke="#170C2C"
                        d="M4.5 37.793h29M11.5 37.793l2.5-6.5M26.5 37.793l-2.5-6.5"
                />
                <path
                        stroke-linecap="round"
                        stroke-width="2.4"
                        stroke="#170C2C"
                        d="M6.3 24.793h4.139a1 1 0 0 0 .905-.575l5.159-10.972a1 1 0 0 1 1.832.05l4.394 10.871a1 1 0 0 0 .927.626h8.076"
                />
                <path
                        stroke-linecap="round"
                        stroke-width="1.4"
                        stroke="#4729FC"
                        d="M34.5 16.836v2.8M34.5 5.836v2.8M30.4 12.736h-2.8M41.4 12.736h-2.8"
                />
            </g>
        </g>
    </g>
</svg>