<svg xmlns="http://www.w3.org/2000/svg" width="44" height="44" viewBox="0 0 44 41">
    <g fill-rule="evenodd" fill="none">
        <path d="M-4-5h50v50H-4z"/>
        <g transform="translate(1.5 1.2)">
            <path stroke-linecap="round" stroke-width="2.4" stroke="#170C2C"
                  d="M38 20.89v5.99a3.7 3.7 0 0 1-3.7 3.7H3.7a3.7 3.7 0 0 1-3.7-3.7V3.7A3.7 3.7 0 0 1 3.7 0h30.6A3.7 3.7 0 0 1 38 3.7"/>
            <circle r="5.3" cy="12.79" cx="34.5" stroke-width="1.4" stroke="#4729FC"/>
            <circle r="1.3" cy="12.79" cx="34.5" stroke-width="1.4" stroke="#4729FC"/>
            <path stroke-linecap="round" fill="#D8D8D8" stroke-width="2.4" stroke="#170C2C"
                  d="M4.5 37.8h29m-22 0 2.5-6.5m12.5 6.5L24 31.3"/>
            <path stroke-linecap="round" stroke-width="2.4" stroke="#170C2C"
                  d="M6.3 24.8h4.14a1 1 0 0 0 .9-.58l5.16-10.97a1 1 0 0 1 1.84.05l4.39 10.87a1 1 0 0 0 .93.62h8.07"/>
            <path stroke-linecap="round" stroke-width="1.4" stroke="#4729FC"
                  d="M34.5 16.84v2.8m0-13.8v2.8m-4.1 4.1h-2.8m13.8 0h-2.8"/>
        </g>
    </g>
</svg>