<svg xmlns="http://www.w3.org/2000/svg" width="44" height="44" viewBox="0 0 50 50">
    <g fill="none">
        <path fill="#4729FC"
              d="M26.2 22.8c.62 0 1.14.56 1.2 1.27v21.94c0 .78-.54 1.4-1.2 1.4-.62 0-1.14-.55-1.2-1.26V24.21c0-.78.54-1.4 1.2-1.4Zm-14.56-1.22c.26-.55.97-.77 1.64-.52l.12.05 6.17 2.88c.7.32 1.05 1.06.78 1.65-.26.56-.98.78-1.65.53l-.12-.06-6.17-2.87c-.7-.33-1.05-1.07-.77-1.66Z"/>
        <path fill="#170C2C"
              d="M45.92 14.43a1 1 0 0 1-.43.43l-18.35 9.6a2 2 0 0 1-1.85 0l-18.35-9.6a1 1 0 0 1 0-1.78l18.35-9.6a2 2 0 0 1 1.85 0l18.35 9.6a1 1 0 0 1 .43 1.36Zm-3-.46-16.7-8.72-16.6 8.72 16.6 8.39 16.7-8.39Z"/>
        <path fill="#170C2C"
              d="M45.91 19.55c.83-.01 1.2.61 1.2 1.44l.06 9.47v5.01l-.02.95-.03.78a1 1 0 0 1-.49.83l-.2.12-18.23 9.67a3.49 3.49 0 0 1-3 .11L6.81 39.27a1 1 0 0 1-.58-.9v-1l-.02-.9-.02-1.83v-2.86l.13-17.29c0-.83.3-1.53 1.13-1.52.83 0 1.2.72 1.2 1.54l-.09 12.97v6.42l.02 2.7v.88a.2.2 0 0 0 .12.18l17.63 8.07a.5.5 0 0 0 .37.03l.08-.03 17.94-9.33a.2.2 0 0 0 .1-.18l.02-.55v-7.53l-.06-7.12c0-.83.3-1.46 1.12-1.47Z"/>
    </g>
</svg>