<svg xmlns="http://www.w3.org/2000/svg" width="44" height="44" viewBox="0 0 46 45">
    <g fill-rule="evenodd" fill="none">
        <path d="M-2-2h50v50H-2z"/>
        <path d="M-2-2.5h50v50H-2z"/>
        <path fill="#4729FC" d="M21.5 16.5H24v5h-2.5z"/>
        <path fill-rule="nonzero" fill="#4729FC"
              d="M28.5.5a3 3 0 0 1 3 3v11a3 3 0 0 1-3 3h-11a3 3 0 0 1-3-3v-11a3 3 0 0 1 3-3h11ZM29 3H17v12h12V3Z"/>
        <path fill-rule="nonzero" fill="#170C2C"
              d="M14.5 27.5a3 3 0 0 1 3 3v11a3 3 0 0 1-3 3h-11a3 3 0 0 1-3-3v-11a3 3 0 0 1 3-3h11ZM15 30H3v12h12V30Z"/>
        <path fill-rule="nonzero" fill="#170C2C"
              d="M34.95 20A4.08 4.08 0 0 1 39 23.92l.01.2v4.38h-2.58v-5.07a1.1 1.1 0 0 0-.93-1.12H11.48c-.52 0-.98.42-1.03 1l-.01.12v5.07H8v-4.38c0-2.2 1.7-4 3.84-4.12h23.11Z"/>
        <path fill-rule="nonzero" fill="#170C2C"
              d="M42.5 27.5a3 3 0 0 1 3 3v11a3 3 0 0 1-3 3h-11a3 3 0 0 1-3-3v-11a3 3 0 0 1 3-3h11ZM43 30H31v12h12V30Z"/>
    </g>
</svg>